<?xml version="1.0" encoding="utf-8"?>
<!-- Generator: Adobe Illustrator 22.0.1, SVG Export Plug-In . SVG Version: 6.00 Build 0)  -->
<svg version="1.1" id="Vulkan" xmlns="http://www.w3.org/2000/svg" xmlns:xlink="http://www.w3.org/1999/xlink" x="0px" y="0px"
	 width="1500px" height="500px" viewBox="0 0 1500 500" style="enable-background:new 0 0 1500 500;" xml:space="preserve">
<style type="text/css">
	.st0{fill:#487A90;}
</style>
<g>
	<g>
		<polygon class="st0" points="1199.5,415.8 1191.4,415.8 1191.4,436.8 1184.4,436.8 1184.4,415.8 1176.3,415.8 1176.3,409.8 
			1199.5,409.8 		"/>
		<polygon class="st0" points="1202.6,409.8 1213,409.8 1217.6,427.8 1217.7,427.8 1222.4,409.8 1232.7,409.8 1232.7,436.8 
			1226.1,436.8 1226.1,416.3 1226,416.3 1220.4,436.8 1215,436.8 1209.3,416.3 1209.2,416.3 1209.2,436.8 1202.6,436.8 		"/>
	</g>
	<g>
		<path class="st0" d="M183.8,244.5h78.4l82.7,192.4h-68.7l-11.6-31.3h-84.1L169,436.8h-68.7L183.8,244.5z M222.9,292.9h-0.5
			l-26.7,72.7h53.9L222.9,292.9z"/>
		<path class="st0" d="M354.1,244.5h73.8l89.2,120.4h0.5V244.5h62v192.4h-70.9l-92.1-121.5H416v121.5h-62V244.5H354.1z"/>
		<path class="st0" d="M672.2,244.5h78.4l82.7,192.4h-68.7L753,405.6h-84l-11.6,31.3h-68.7L672.2,244.5z M711.3,292.9h-0.5
			l-26.7,72.7H738L711.3,292.9z"/>
		<path class="st0" d="M842.5,244.5h154.1c11.9,0,21.9,1.3,30,3.9c8.2,2.6,14.8,6.2,19.9,10.9c5.1,4.7,8.8,10.3,11,16.8
			c2.2,6.6,3.4,13.9,3.4,22c0,12.9-3,22.9-8.9,30s-13.2,11.7-21.8,13.9v0.5c6.1,2,11.3,5.6,15.5,10.9s6.8,13.2,7.7,23.6
			c0.7,9.5,1.4,17.5,2,24s1.3,12,2.2,16.6c0.8,4.6,1.8,8.4,3.1,11.3c1.3,3,2.9,5.6,4.9,7.9h-70.3c-1.8-4.1-2.9-8.8-3.2-14
			c-0.4-5.2-0.5-10.1-0.5-14.5c0-7.5-0.6-13.6-1.8-18.3c-1.2-4.7-2.9-8.3-5.3-10.8c-2.3-2.5-5.1-4.2-8.4-5.1
			c-3.2-0.9-6.8-1.3-10.8-1.3h-58.7v64.1h-64.1L842.5,244.5L842.5,244.5z M906.6,329.6h61.7c8.1,0,14.1-1.9,18.1-5.7
			c3.9-3.8,5.9-9,5.9-15.6c0-6.3-2-11.3-5.9-15.1c-4-3.8-10-5.7-18.1-5.7h-61.7V329.6z"/>
		<path class="st0" d="M1090.1,244.5h64.1v192.4h-64.1V244.5z"/>
	</g>
	<path class="st0" d="M1255,437.1c59.1-10.5,150.2-56,151.7-104.8c2.1-69.4-158.2-148.8-533.3-172.2
		c-281.2-17.5-546.3,23.8-769.2,38.2C503.8,97.2,727.3,37.3,905.5,62c112.2,15.6,295.7,128.9,360.4,240.9
		C1285.2,336.5,1291.4,384.7,1255,437.1z"/>
</g>
</svg>
