<svg width="491" height="416" xmlns="http://www.w3.org/2000/svg" xmlns:xlink="http://www.w3.org/1999/xlink" overflow="hidden"><defs><clipPath id="clip0"><rect x="0" y="0" width="491" height="416"/></clipPath></defs><g clip-path="url(#clip0)"><rect x="0" y="0" width="491" height="415.615" fill="#FFFFFF"/><path d="M0 0 157.177 25.3086" stroke="#487A90" stroke-width="1.99864" stroke-linejoin="round" stroke-miterlimit="10" fill="none" fill-rule="evenodd" transform="matrix(-1 0 0 1.00148 226.177 51.0756)"/><path d="M226 51.0756 226 76.4217" stroke="#487A90" stroke-width="1.99864" stroke-linejoin="round" stroke-miterlimit="10" fill="none" fill-rule="evenodd"/><path d="M226 51.0756 385.447 76.4217" stroke="#487A90" stroke-width="1.99864" stroke-linejoin="round" stroke-miterlimit="10" fill="none" fill-rule="evenodd"/><path d="M0 0 157.177 21.5033" stroke="#487A90" stroke-width="1.99864" stroke-linejoin="round" stroke-miterlimit="10" fill="none" fill-rule="evenodd" transform="matrix(-1 0 0 1.00148 226.177 113.167)"/><path d="M69 171.253 69.0001 201.64" stroke="#487A90" stroke-width="1.99864" stroke-linejoin="round" stroke-miterlimit="10" fill="none" fill-rule="evenodd"/><path d="M69 239.354 106.098 295.976" stroke="#487A90" stroke-width="1.99864" stroke-linejoin="round" stroke-miterlimit="10" fill="none" fill-rule="evenodd"/><path d="M69 239.354 291.206 295.976" stroke="#487A90" stroke-width="1.99864" stroke-linejoin="round" stroke-miterlimit="10" fill="none" fill-rule="evenodd"/><path d="M0 0 50.7694 32.4254" stroke="#487A90" stroke-width="1.99864" stroke-linejoin="round" stroke-miterlimit="10" fill="none" fill-rule="evenodd" transform="matrix(-1 0 0 1.00148 105.769 332.492)"/><path d="M106 332.492 159.921 364.96" stroke="#487A90" stroke-width="1.99864" stroke-linejoin="round" stroke-miterlimit="10" fill="none" fill-rule="evenodd"/><path d="M291 332.492 291 364.425" stroke="#487A90" stroke-width="1.99864" stroke-linejoin="round" stroke-miterlimit="10" fill="none" fill-rule="evenodd"/><path d="M175 18.4406C175 15.9996 176.976 14.0208 179.413 14.0208L272.587 14.0208C275.024 14.0208 277 15.9996 277 18.4406L277 46.6557C277 49.0967 275.024 51.0756 272.587 51.0756L179.413 51.0756C176.976 51.0756 175 49.0967 175 46.6557Z" fill="#487A90" fill-rule="evenodd"/><text fill="#FFFFFF" font-family="Trebuchet MS,Trebuchet MS_MSFontService,sans-serif" font-weight="700" font-size="16" transform="matrix(1 0 0 1.00148 201.997 38)">Frame</text><path d="M334 80.5324C334 78.0914 335.976 76.1125 338.413 76.1125L431.587 76.1125C434.024 76.1125 436 78.0914 436 80.5324L436 108.747C436 111.188 434.024 113.167 431.587 113.167L338.413 113.167C335.976 113.167 334 111.188 334 108.747Z" fill="#487A90" fill-rule="evenodd"/><text fill="#FFFFFF" font-family="Trebuchet MS,Trebuchet MS_MSFontService,sans-serif" font-weight="700" font-size="16" transform="matrix(1 0 0 1.00148 350.368 100)">Renderer</text><path d="M175 80.5324C175 78.0914 176.976 76.1125 179.413 76.1125L272.587 76.1125C275.024 76.1125 277 78.0914 277 80.5324L277 108.747C277 111.188 275.024 113.167 272.587 113.167L179.413 113.167C176.976 113.167 175 111.188 175 108.747Z" fill="#487A90" fill-rule="evenodd"/><text fill="#FFFFFF" font-family="Trebuchet MS,Trebuchet MS_MSFontService,sans-serif" font-weight="700" font-size="16" transform="matrix(1 0 0 1.00148 203.829 100)">World</text><path d="M18 80.5324C18 78.0914 19.9759 76.1125 22.4133 76.1125L114.587 76.1125C117.024 76.1125 119 78.0914 119 80.5324L119 108.748C119 111.189 117.024 113.167 114.587 113.167L22.4133 113.167C19.9759 113.167 18 111.189 18 108.748Z" fill="#487A90" fill-rule="evenodd"/><text fill="#FFFFFF" font-family="Trebuchet MS,Trebuchet MS_MSFontService,sans-serif" font-weight="700" font-size="16" transform="matrix(1 0 0 1.00148 40.3233 100)">Camera</text><path d="M18 138.618C18 136.177 19.9759 134.198 22.4133 134.198L114.587 134.198C117.024 134.198 119 136.177 119 138.618L119 166.833C119 169.274 117.024 171.253 114.587 171.253L22.4133 171.253C19.9759 171.253 18 169.274 18 166.833Z" fill="#487A90" fill-rule="evenodd"/><text fill="#FFFFFF" font-family="Trebuchet MS,Trebuchet MS_MSFontService,sans-serif" font-weight="700" font-size="16" transform="matrix(1 0 0 1.00148 37.4086 159)">Instance</text><path d="M18 206.719C18 204.278 19.9759 202.299 22.4133 202.299L114.587 202.299C117.024 202.299 119 204.278 119 206.719L119 234.934C119 237.375 117.024 239.354 114.587 239.354L22.4133 239.354C19.9759 239.354 18 237.375 18 234.934Z" fill="#487A90" fill-rule="evenodd"/><text fill="#FFFFFF" font-family="Trebuchet MS,Trebuchet MS_MSFontService,sans-serif" font-weight="700" font-size="16" transform="matrix(1 0 0 1.00148 45.9861 226)">Group</text><path d="M55 299.857C55 297.416 56.9759 295.437 59.4133 295.437L152.587 295.437C155.024 295.437 157 297.416 157 299.857L157 328.072C157 330.513 155.024 332.492 152.587 332.492L59.4133 332.492C56.9759 332.492 55 330.513 55 328.072Z" fill="#487A90" fill-rule="evenodd"/><text fill="#FFFFFF" font-family="Trebuchet MS,Trebuchet MS_MSFontService,sans-serif" font-weight="700" font-size="16" transform="matrix(1 0 0 1.00148 77.6715 320)">Surface</text><path d="M240 299.857C240 297.416 241.976 295.437 244.413 295.437L337.587 295.437C340.024 295.437 342 297.416 342 299.857L342 328.072C342 330.513 340.024 332.492 337.587 332.492L244.413 332.492C241.976 332.492 240 330.513 240 328.072Z" fill="#487A90" fill-rule="evenodd"/><text fill="#FFFFFF" font-family="Trebuchet MS,Trebuchet MS_MSFontService,sans-serif" font-weight="700" font-size="16" transform="matrix(1 0 0 1.00148 262.779 320)">Volume</text><path d="M4.00001 369.961C4.00001 367.52 5.97592 365.541 8.41332 365.541L101.587 365.541C104.024 365.541 106 367.52 106 369.961L106 398.176C106 400.617 104.024 402.595 101.587 402.595L8.41332 402.595C5.97592 402.595 4.00001 400.617 4.00001 398.176Z" fill="#487A90" fill-rule="evenodd"/><text fill="#FFFFFF" font-family="Trebuchet MS,Trebuchet MS_MSFontService,sans-serif" font-weight="700" font-size="16" transform="matrix(1 0 0 1.00148 18.2413 390)">Geometry</text><path d="M227 368.959C227 366.518 228.976 364.539 231.413 364.539L350.587 364.539C353.024 364.539 355 366.518 355 368.959L355 397.174C355 399.615 353.024 401.594 350.587 401.594L231.413 401.594C228.976 401.594 227 399.615 227 397.174Z" fill="#487A90" fill-rule="evenodd"/><text fill="#FFFFFF" font-family="Trebuchet MS,Trebuchet MS_MSFontService,sans-serif" font-weight="700" font-size="16" transform="matrix(1 0 0 1.00148 244.625 389)">Spatial Field</text><path d="M109 369.961C109 367.52 110.976 365.541 113.413 365.541L205.587 365.541C208.024 365.541 210 367.52 210 369.961L210 398.176C210 400.617 208.024 402.595 205.587 402.595L113.413 402.595C110.976 402.595 109 400.617 109 398.176Z" fill="#487A90" fill-rule="evenodd"/><text fill="#FFFFFF" font-family="Trebuchet MS,Trebuchet MS_MSFontService,sans-serif" font-weight="700" font-size="16" transform="matrix(1 0 0 1.00148 129.26 390)">Material</text><text fill="#487A90" font-family="Trebuchet MS,Trebuchet MS_MSFontService,sans-serif" font-weight="700" font-size="11" transform="matrix(1 0 0 1.00148 126.535 59)">1:1</text><text fill="#487A90" font-family="Trebuchet MS,Trebuchet MS_MSFontService,sans-serif" font-weight="700" font-size="11" transform="matrix(1 0 0 1.00148 202.541 69)">1:1</text><text fill="#487A90" font-family="Trebuchet MS,Trebuchet MS_MSFontService,sans-serif" font-weight="700" font-size="11" transform="matrix(1 0 0 1.00148 307.937 58)">1:1</text><text fill="#487A90" font-family="Trebuchet MS,Trebuchet MS_MSFontService,sans-serif" font-weight="700" font-size="11" transform="matrix(1 0 0 1.00148 133.487 121)">1:N</text><text fill="#487A90" font-family="Trebuchet MS,Trebuchet MS_MSFontService,sans-serif" font-weight="700" font-size="11" transform="matrix(1 0 0 1.00148 45.3287 191)">1:1</text><text fill="#487A90" font-family="Trebuchet MS,Trebuchet MS_MSFontService,sans-serif" font-weight="700" font-size="11" transform="matrix(1 0 0 1.00148 146.396 353)">1:1</text><text fill="#487A90" font-family="Trebuchet MS,Trebuchet MS_MSFontService,sans-serif" font-weight="700" font-size="11" transform="matrix(1 0 0 1.00148 48.6406 353)">1:1</text><text fill="#487A90" font-family="Trebuchet MS,Trebuchet MS_MSFontService,sans-serif" font-weight="700" font-size="11" transform="matrix(1 0 0 1.00148 295.089 352)">1:1</text><path d="M385 299.857C385 297.416 386.976 295.437 389.413 295.437L482.587 295.437C485.024 295.437 487 297.416 487 299.857L487 328.072C487 330.513 485.024 332.492 482.587 332.492L389.413 332.492C386.976 332.492 385 330.513 385 328.072Z" fill="#487A90" fill-rule="evenodd"/><text fill="#FFFFFF" font-family="Trebuchet MS,Trebuchet MS_MSFontService,sans-serif" font-weight="700" font-size="16" transform="matrix(1 0 0 1.00148 417.296 320)">Light</text><path d="M69 239.354 436.396 295.976" stroke="#487A90" stroke-width="1.99864" stroke-linejoin="round" stroke-miterlimit="10" fill="none" fill-rule="evenodd"/><text fill="#487A90" font-family="Trebuchet MS,Trebuchet MS_MSFontService,sans-serif" font-weight="700" font-size="11" transform="matrix(1 0 0 1.00148 95.8468 279)">1:N</text><path d="M0 0 120.078 182.265" stroke="#487A90" stroke-width="1.99864" stroke-linejoin="round" stroke-miterlimit="10" fill="none" fill-rule="evenodd" transform="matrix(-1 0 0 1.00148 226.078 113.167)"/><path d="M226 113.167 436.219 295.703" stroke="#487A90" stroke-width="1.99864" stroke-linejoin="round" stroke-miterlimit="10" fill="none" fill-rule="evenodd"/><text fill="#487A90" font-family="Trebuchet MS,Trebuchet MS_MSFontService,sans-serif" font-weight="700" font-size="11" transform="matrix(1 0 0 1.00148 390.73 283)">1:N</text><text fill="#487A90" font-family="Trebuchet MS,Trebuchet MS_MSFontService,sans-serif" font-weight="700" font-size="11" transform="matrix(1 0 0 1.00148 265.31 288)">1:N</text><path d="M226 113.167 291.03 295.703" stroke="#487A90" stroke-width="1.99864" stroke-linejoin="round" stroke-miterlimit="10" fill="none" fill-rule="evenodd"/></g></svg>